<svg width="40" height="40" viewBox="0 0 40 40" fill="none" xmlns="http://www.w3.org/2000/svg">
<path d="M14.6166 24.05L17.3 25.25C19.0166 26.0167 20.9833 26.0167 22.7166 25.25L25.4 24.05C27.8 22.9833 30.0167 25.8833 28.35 27.9167L22.5833 34.9667C21.1667 36.7 18.85 36.7 17.4166 34.9667L11.6666 27.9167C9.98332 25.8833 12.2 22.9833 14.6166 24.05Z" fill="white"/>
<path d="M14.2833 19.45C13.7833 19.8167 13.85 20.5833 14.4166 20.8667L18.3333 22.8167C19.25 23.2833 20.7333 23.2833 21.6333 22.8167L25.55 20.8667C26.1 20.5833 26.1667 19.8333 25.6833 19.45L20.5 15.55C20.2 15.3333 19.8 15.3333 19.5 15.55L14.2833 19.45Z" fill="white"/>
<path d="M29.8 13.7333L22.85 5.06667C22.7166 4.9 22.5666 4.75 22.4166 4.6C21.9833 4.18333 21.3666 4.56667 21.3666 5.16667V12.3333C21.3666 12.6 21.4833 12.85 21.7 13L28.6166 18.2L28.9166 18.4167C29.2166 18.6333 29.6333 18.6333 29.8833 18.3667C31.05 17.1 31.0333 15.2667 29.8 13.7333Z" fill="white"/>
<path d="M10.1833 13.8833L17.1 5.08332C17.2333 4.91665 17.3667 4.76665 17.5167 4.61665C17.95 4.19999 18.5666 4.56665 18.5666 5.18332V12.4667C18.5666 12.7333 18.45 12.9667 18.2333 13.1333L11.35 18.4167L11.0666 18.6333C10.7666 18.85 10.35 18.85 10.0833 18.5667C8.94999 17.2833 8.96665 15.45 10.1833 13.8833Z" fill="white"/>
</svg>
